<svg xmlns="http://www.w3.org/2000/svg" xmlns:xlink="http://www.w3.org/1999/xlink" viewBox="0 0 283.46 283.46"><defs><style>.cls-1{fill:#de144f;}.cls-2{fill:url(#linear-gradient);}.cls-3{fill:#fff;}.cls-4{fill:#ece025;}</style><linearGradient id="linear-gradient" x1="46.66" y1="330.13" x2="330.13" y2="46.66" gradientUnits="userSpaceOnUse"><stop offset="0" stop-color="#b2163d"/><stop offset="0.55" stop-color="#de144f"/><stop offset="1" stop-color="#b2163d"/></linearGradient></defs><title>Artboard 1</title><g id="Laag_7" data-name="Laag 7"><rect class="cls-1" width="283.46" height="283.46"/></g><g id="Layer_6" data-name="Layer 6"><path class="cls-2" d="M283.46,0H186.65C162.43,34.61,170,113.3,137.17,163.34,101.62,217.49,26,201,2,266.37q-1.09,3-2,5.95v11.14H283.46Z"/></g><g id="_3" data-name="3"><path class="cls-3" d="M122.85,113.37a20.85,20.85,0,0,1-8.5-7.3,11.06,11.06,0,0,1,9.52-17c6.29,0,11.86,3.78,16,9.19V51.09a69,69,0,0,0-18.44,4.35,58.86,58.86,0,0,0-20.56,13.37A56.65,56.65,0,0,0,88,89.5a75.5,75.5,0,0,0-4.38,23.87Z"/><path class="cls-3" d="M167,96.73a4.5,4.5,0,0,0-4-2c-4.83,0-12.79,5.35-15.91,16.77,8.45.29,17.08-3.2,20.08-8.11A5.7,5.7,0,0,0,167,96.73Z"/><path class="cls-3" d="M147.07,98.3c4.11-5.41,9.68-9.19,16-9.19a11.06,11.06,0,0,1,9.53,17,20.85,20.85,0,0,1-8.5,7.3h35.81V57.71q-9.33-2.52-22.71-4.79a168,168,0,0,0-28.26-2.28l-1.83,0Z"/><path class="cls-3" d="M150,120.61c3.46,4.69,10.21,11.26,23,16.72l-2.54,5.95c-11.64-5-18.87-10.89-23.32-15.92v50.9a51.89,51.89,0,0,0,10.29-2,79.23,79.23,0,0,0,12-4.54v5q0,14.89-7.82,22.46t-26.24,7.57a108.47,108.47,0,0,1-21.58-2,94.58,94.58,0,0,1-17.78-5.3l-5.56,26a131.85,131.85,0,0,0,20.82,5.3,135.56,135.56,0,0,0,23.59,2q33.06,0,49.08-14.63t16-46.18v-51.4Z"/><path class="cls-3" d="M117.24,174.53a63.35,63.35,0,0,0,22.6,4V127.36c-4.45,5-11.68,10.94-23.32,15.92L114,137.33c12.76-5.46,19.51-12,23-16.72H83.65a76.79,76.79,0,0,0,4.07,22.51,54.1,54.1,0,0,0,11.6,19.55A48.13,48.13,0,0,0,117.24,174.53Z"/><path class="cls-3" d="M123.87,94.69a4.5,4.5,0,0,0-4,2,5.68,5.68,0,0,0-.17,6.62c3,4.91,11.63,8.4,20.08,8.11C136.67,100,128.71,94.69,123.87,94.69Z"/><path class="cls-4" d="M237.57,216.24c0,22.11-33.58,22.11-33.58,0S237.57,194.12,237.57,216.24Z"/></g></svg>